<svg xmlns="http://www.w3.org/2000/svg" xmlns:xlink="http://www.w3.org/1999/xlink" width="260" zoomAndPan="magnify" viewBox="0 0 194.87999 60" height="80" preserveAspectRatio="xMidYMid meet" version="1.0"><defs><filter x="0%" y="0%" width="100%" height="100%" id="c080d24f3d"><feColorMatrix values="0 0 0 0 1 0 0 0 0 1 0 0 0 0 1 0 0 0 1 0" color-interpolation-filters="sRGB"/></filter><g/><clipPath id="7e07b917ba"><path d="M 1.042969 10.246094 L 46.765625 10.246094 L 46.765625 45.476562 L 1.042969 45.476562 Z M 1.042969 10.246094 " clip-rule="nonzero"/></clipPath><clipPath id="3fb37069db"><path d="M 13 10.246094 L 19 10.246094 L 19 18 L 13 18 Z M 13 10.246094 " clip-rule="nonzero"/></clipPath><mask id="4f5c7cfd5d"><g filter="url(#c080d24f3d)"><rect x="-19.487999" width="233.855988" fill="#000000" y="-6" height="72" fill-opacity="0.098"/></g></mask><clipPath id="5b515cb6bc"><path d="M 0.671875 1 L 5.46875 1 L 5.46875 7 L 0.671875 7 Z M 0.671875 1 " clip-rule="nonzero"/></clipPath><clipPath id="d78af0dbca"><rect x="0" width="6" y="0" height="8"/></clipPath><clipPath id="e77e760979"><path d="M 29 10.246094 L 35 10.246094 L 35 18 L 29 18 Z M 29 10.246094 " clip-rule="nonzero"/></clipPath><mask id="73371539f8"><g filter="url(#c080d24f3d)"><rect x="-19.487999" width="233.855988" fill="#000000" y="-6" height="72" fill-opacity="0.098"/></g></mask><clipPath id="052a51b81a"><path d="M 0.261719 1 L 5 1 L 5 7 L 0.261719 7 Z M 0.261719 1 " clip-rule="nonzero"/></clipPath><clipPath id="5a4ad03c83"><rect x="0" width="6" y="0" height="8"/></clipPath><mask id="33278e44fc"><g filter="url(#c080d24f3d)"><rect x="-19.487999" width="233.855988" fill="#000000" y="-6" height="72" fill-opacity="0.098"/></g></mask><clipPath id="3cff85fd5d"><path d="M 1 1 L 5 1 L 5 6.710938 L 1 6.710938 Z M 1 1 " clip-rule="nonzero"/></clipPath><clipPath id="ea7418aff7"><rect x="0" width="6" y="0" height="7"/></clipPath><mask id="4c26244f4a"><g filter="url(#c080d24f3d)"><rect x="-19.487999" width="233.855988" fill="#000000" y="-6" height="72" fill-opacity="0.098"/></g></mask><clipPath id="7632767baf"><path d="M 0.339844 1 L 5 1 L 5 6.710938 L 0.339844 6.710938 Z M 0.339844 1 " clip-rule="nonzero"/></clipPath><clipPath id="50448b0894"><rect x="0" width="6" y="0" height="7"/></clipPath><mask id="cdf0009108"><g filter="url(#c080d24f3d)"><rect x="-19.487999" width="233.855988" fill="#000000" y="-6" height="72" fill-opacity="0.5882"/></g></mask><clipPath id="803e141916"><path d="M 0.671875 1 L 5 1 L 5 11.515625 L 0.671875 11.515625 Z M 0.671875 1 " clip-rule="nonzero"/></clipPath><clipPath id="a986b30207"><path d="M 17 1 L 21 1 L 21 11.515625 L 17 11.515625 Z M 17 1 " clip-rule="nonzero"/></clipPath><clipPath id="adece38d17"><rect x="0" width="22" y="0" height="12"/></clipPath><mask id="07ae8a0e68"><g filter="url(#c080d24f3d)"><rect x="-19.487999" width="233.855988" fill="#000000" y="-6" height="72" fill-opacity="0.098"/></g></mask><clipPath id="cf0d95dcdf"><path d="M 0.796875 1 L 4.394531 1 L 4.394531 9.484375 L 0.796875 9.484375 Z M 0.796875 1 " clip-rule="nonzero"/></clipPath><clipPath id="96fe45941c"><rect x="0" width="5" y="0" height="10"/></clipPath><mask id="bfb958ed8c"><g filter="url(#c080d24f3d)"><rect x="-19.487999" width="233.855988" fill="#000000" y="-6" height="72" fill-opacity="0.098"/></g></mask><clipPath id="cae39c044f"><path d="M 0.335938 1 L 3.933594 1 L 3.933594 9.484375 L 0.335938 9.484375 Z M 0.335938 1 " clip-rule="nonzero"/></clipPath><clipPath id="952d6c8e6a"><rect x="0" width="4" y="0" height="10"/></clipPath></defs><g clip-path="url(#7e07b917ba)"><path fill="#ffffff" d="M 44.261719 16.515625 C 43.808594 16.367188 43.308594 16.265625 42.859375 16.265625 C 42.65625 16.265625 42.507812 16.265625 42.308594 16.316406 C 42.207031 16.316406 42.15625 16.367188 42.058594 16.367188 C 42.058594 16.367188 42.058594 16.367188 42.007812 16.367188 C 41.90625 16.367188 41.804688 16.417969 41.707031 16.464844 C 41.65625 16.464844 41.605469 16.515625 41.503906 16.515625 C 41.457031 16.515625 41.40625 16.566406 41.304688 16.617188 C 41.253906 16.617188 41.253906 16.617188 41.207031 16.667969 C 41.105469 16.71875 41.003906 16.769531 40.953125 16.816406 C 40.90625 16.816406 40.90625 16.867188 40.855469 16.867188 C 40.804688 16.917969 40.703125 16.96875 40.65625 17.019531 C 40.65625 17.019531 40.605469 17.070312 40.605469 17.070312 C 40.503906 17.117188 40.453125 17.21875 40.355469 17.269531 C 40.253906 17.371094 40.152344 17.46875 40.054688 17.570312 L 39.503906 18.222656 L 39.503906 24.195312 L 42.808594 20.28125 L 42.808594 34.335938 C 42.808594 37.597656 40.605469 40.359375 37.648438 41.210938 L 37.648438 14.308594 C 37.648438 12.652344 36.648438 11.246094 35.097656 10.746094 C 33.992188 10.394531 32.84375 10.542969 31.890625 11.144531 C 31.539062 11.398438 31.191406 11.699219 30.890625 12.050781 L 29.535156 13.804688 L 23.878906 21.386719 L 16.816406 12 C 16.515625 11.597656 16.214844 11.296875 15.816406 11.09375 C 14.863281 10.492188 13.710938 10.34375 12.609375 10.746094 C 11.058594 11.246094 10.054688 12.652344 10.054688 14.308594 L 10.054688 41.261719 C 7.050781 40.410156 4.898438 37.648438 4.898438 34.386719 L 4.898438 20.332031 L 8.203125 24.246094 L 8.203125 18.273438 L 7.652344 17.621094 C 7.550781 17.519531 7.453125 17.421875 7.351562 17.320312 C 7.253906 17.21875 7.203125 17.167969 7.101562 17.117188 C 7.101562 17.117188 7.050781 17.070312 7.050781 17.070312 C 6.953125 17.019531 6.851562 16.917969 6.800781 16.867188 C 6.800781 16.867188 6.75 16.867188 6.75 16.816406 C 6.652344 16.769531 6.601562 16.71875 6.5 16.667969 C 6.449219 16.667969 6.449219 16.617188 6.402344 16.617188 C 6.351562 16.566406 6.300781 16.566406 6.199219 16.515625 C 6.148438 16.464844 6.101562 16.464844 6 16.464844 C 5.800781 16.417969 5.597656 16.367188 5.398438 16.316406 C 5.25 16.316406 5.046875 16.265625 4.898438 16.265625 L 4.796875 16.265625 C 4.347656 16.265625 3.898438 16.316406 3.496094 16.515625 C 1.992188 17.070312 1.042969 18.425781 1.042969 20.03125 L 1.042969 34.386719 C 1.042969 40.460938 5.949219 45.378906 12.007812 45.378906 L 13.960938 45.378906 L 13.960938 14.609375 L 15.765625 17.019531 L 23.878906 27.761719 L 33.84375 14.609375 L 33.84375 45.378906 L 35.796875 45.378906 C 41.855469 45.378906 46.765625 40.460938 46.765625 34.386719 L 46.765625 20.03125 C 46.714844 18.425781 45.761719 17.070312 44.261719 16.515625 Z M 44.261719 16.515625 " fill-opacity="1" fill-rule="nonzero"/></g><g clip-path="url(#3fb37069db)"><g mask="url(#4f5c7cfd5d)"><g transform="matrix(1, 0, 0, 1, 13, 10)"><g clip-path="url(#d78af0dbca)"><g clip-path="url(#5b515cb6bc)"><path fill="#0c0f22" d="M 5.117188 3.757812 C 4.367188 3.855469 2.914062 4.910156 2.714844 6.96875 L 0.914062 4.558594 C 0.914062 2.652344 1.964844 1.496094 2.816406 1.046875 C 3.167969 1.296875 3.515625 1.597656 3.816406 1.949219 Z M 5.117188 3.757812 " fill-opacity="1" fill-rule="nonzero"/></g></g></g></g></g><g clip-path="url(#e77e760979)"><g mask="url(#73371539f8)"><g transform="matrix(1, 0, 0, 1, 29, 10)"><g clip-path="url(#5a4ad03c83)"><g clip-path="url(#052a51b81a)"><path fill="#0c0f22" d="M 0.585938 3.757812 C 1.339844 3.855469 2.789062 4.910156 2.992188 6.96875 L 4.792969 4.558594 C 4.792969 2.652344 3.742188 1.496094 2.890625 1.046875 C 2.539062 1.296875 2.191406 1.597656 1.890625 1.949219 Z M 0.585938 3.757812 " fill-opacity="1" fill-rule="nonzero"/></g></g></g></g></g><g mask="url(#33278e44fc)"><g transform="matrix(1, 0, 0, 1, 9, 36)"><g clip-path="url(#ea7418aff7)"><g clip-path="url(#3cff85fd5d)"><path fill="#0c0f22" d="M 4.914062 2 L 4.914062 6.214844 C 3.710938 6.167969 2.109375 5.914062 1.054688 5.3125 L 1.054688 1.097656 C 2.15625 1.699219 3.710938 1.898438 4.914062 2 Z M 4.914062 2 " fill-opacity="1" fill-rule="nonzero"/></g></g></g></g><g mask="url(#4c26244f4a)"><g transform="matrix(1, 0, 0, 1, 33, 36)"><g clip-path="url(#50448b0894)"><g clip-path="url(#7632767baf)"><path fill="#0c0f22" d="M 4.699219 1.046875 L 4.699219 5.261719 C 3.648438 5.867188 2.046875 6.117188 0.84375 6.167969 L 0.84375 2 C 2.046875 1.898438 3.597656 1.699219 4.699219 1.046875 Z M 4.699219 1.046875 " fill-opacity="1" fill-rule="nonzero"/></g></g></g></g><path fill="#de0f3f" d="M 33.84375 25.050781 L 33.84375 31.023438 L 23.878906 42.820312 L 13.914062 31.023438 L 13.914062 25.050781 L 23.878906 36.847656 Z M 33.84375 25.050781 " fill-opacity="1" fill-rule="nonzero"/><g mask="url(#cdf0009108)"><g transform="matrix(1, 0, 0, 1, 13, 24)"><g clip-path="url(#adece38d17)"><g clip-path="url(#803e141916)"><path fill="#de0f3f" d="M 4.519531 5.316406 L 4.519531 11.289062 L 0.914062 7.023438 L 0.914062 1.050781 Z M 4.519531 5.316406 " fill-opacity="1" fill-rule="nonzero"/></g><g clip-path="url(#a986b30207)"><path fill="#de0f3f" d="M 20.84375 1.050781 L 20.84375 7.023438 L 17.238281 11.289062 L 17.238281 5.316406 Z M 20.84375 1.050781 " fill-opacity="1" fill-rule="nonzero"/></g></g></g></g><g mask="url(#07ae8a0e68)"><g transform="matrix(1, 0, 0, 1, 4, 15)"><g clip-path="url(#96fe45941c)"><g clip-path="url(#cf0d95dcdf)"><path fill="#0c0f22" d="M 4.203125 3.273438 L 4.203125 9.246094 L 0.898438 5.332031 L 0.898438 1.265625 C 1.046875 1.265625 1.25 1.265625 1.398438 1.316406 C 1.597656 1.367188 1.800781 1.417969 2 1.464844 C 2.050781 1.464844 2.101562 1.515625 2.199219 1.515625 C 2.25 1.515625 2.300781 1.566406 2.402344 1.617188 C 2.449219 1.617188 2.449219 1.667969 2.5 1.667969 C 2.601562 1.71875 2.699219 1.769531 2.75 1.816406 C 2.75 1.816406 2.800781 1.816406 2.800781 1.867188 C 2.902344 1.917969 3 1.96875 3.050781 2.070312 C 3.050781 2.070312 3.101562 2.117188 3.101562 2.117188 C 3.203125 2.167969 3.253906 2.269531 3.351562 2.320312 C 3.453125 2.421875 3.550781 2.519531 3.652344 2.621094 Z M 4.203125 3.273438 " fill-opacity="1" fill-rule="nonzero"/></g></g></g></g><g mask="url(#bfb958ed8c)"><g transform="matrix(1, 0, 0, 1, 39, 15)"><g clip-path="url(#952d6c8e6a)"><g clip-path="url(#cae39c044f)"><path fill="#0c0f22" d="M 3.859375 1.265625 L 3.859375 5.332031 L 0.554688 9.246094 L 0.554688 3.273438 L 1.105469 2.621094 C 1.203125 2.519531 1.304688 2.421875 1.402344 2.320312 C 1.503906 2.269531 1.554688 2.167969 1.65625 2.117188 C 1.65625 2.117188 1.703125 2.070312 1.703125 2.070312 C 1.753906 2.019531 1.855469 1.96875 1.90625 1.917969 C 1.953125 1.917969 1.953125 1.867188 2.003906 1.867188 C 2.105469 1.816406 2.15625 1.769531 2.253906 1.71875 C 2.304688 1.71875 2.304688 1.667969 2.355469 1.667969 C 2.40625 1.617188 2.457031 1.617188 2.554688 1.566406 C 2.605469 1.515625 2.65625 1.515625 2.757812 1.515625 C 2.855469 1.464844 2.957031 1.464844 3.058594 1.417969 C 3.058594 1.417969 3.058594 1.417969 3.105469 1.417969 C 3.207031 1.417969 3.257812 1.367188 3.355469 1.367188 C 3.507812 1.316406 3.65625 1.316406 3.859375 1.265625 Z M 3.859375 1.265625 " fill-opacity="1" fill-rule="nonzero"/></g></g></g></g><g fill="#ffffff" fill-opacity="1"><g transform="translate(50.417526, 35.468561)"><g><path d="M 1.917969 0 L 3.667969 0 L 3.667969 -11.273438 L 8.898438 -3.4375 L 9.980469 -3.4375 L 15.210938 -11.273438 L 15.210938 0 L 16.964844 0 L 16.964844 -14.585938 L 15.460938 -14.585938 L 9.441406 -5.585938 L 3.417969 -14.585938 L 1.917969 -14.585938 Z M 1.917969 0 "/></g></g></g><g fill="#ffffff" fill-opacity="1"><g transform="translate(69.294696, 35.468561)"><g><path d="M 7.855469 0.25 C 11.085938 0.25 13.941406 -1.167969 13.941406 -5.335938 L 13.941406 -14.585938 L 12.191406 -14.585938 L 12.191406 -5.417969 C 12.191406 -2.460938 10.355469 -1.417969 7.855469 -1.417969 C 5.335938 -1.417969 3.5 -2.460938 3.5 -5.417969 L 3.5 -14.585938 L 1.75 -14.585938 L 1.75 -5.335938 C 1.75 -1.167969 4.605469 0.25 7.855469 0.25 Z M 7.855469 0.25 "/></g></g></g><g fill="#ffffff" fill-opacity="1"><g transform="translate(84.983998, 35.468561)"><g><path d="M 1.917969 0 L 11.753906 0 L 11.753906 -1.667969 L 3.667969 -1.667969 L 3.667969 -14.585938 L 1.917969 -14.585938 Z M 1.917969 0 "/></g></g></g><g fill="#ffffff" fill-opacity="1"><g transform="translate(97.047884, 35.468561)"><g><path d="M 5.417969 0 L 7.167969 0 L 7.167969 -12.921875 L 12.296875 -12.921875 L 12.296875 -14.585938 L 0.292969 -14.585938 L 0.292969 -12.921875 L 5.417969 -12.921875 Z M 5.417969 0 "/></g></g></g><g fill="#ffffff" fill-opacity="1"><g transform="translate(109.632664, 35.468561)"><g><path d="M 1.917969 0 L 3.667969 0 L 3.667969 -14.585938 L 1.917969 -14.585938 Z M 1.917969 0 "/></g></g></g><g fill="#ffffff" fill-opacity="1"><g transform="translate(115.216638, 35.468561)"><g><path d="M 1.917969 0 L 3.667969 0 L 3.667969 -11.273438 L 8.898438 -3.4375 L 9.980469 -3.4375 L 15.210938 -11.273438 L 15.210938 0 L 16.964844 0 L 16.964844 -14.585938 L 15.460938 -14.585938 L 9.441406 -5.585938 L 3.417969 -14.585938 L 1.917969 -14.585938 Z M 1.917969 0 "/></g></g></g><g fill="#ffffff" fill-opacity="1"><g transform="translate(134.093808, 35.468561)"><g><path d="M 8.566406 0.25 C 13.671875 0.25 16.191406 -3.523438 16.191406 -7.292969 C 16.191406 -11.066406 13.671875 -14.835938 8.566406 -14.835938 C 3.460938 -14.835938 0.9375 -11.066406 0.9375 -7.292969 C 0.9375 -3.523438 3.460938 0.25 8.566406 0.25 Z M 8.566406 -1.417969 C 4.605469 -1.417969 2.710938 -4.292969 2.710938 -7.292969 C 2.710938 -10.292969 4.605469 -13.171875 8.566406 -13.171875 C 12.523438 -13.171875 14.421875 -10.292969 14.421875 -7.292969 C 14.421875 -4.292969 12.523438 -1.417969 8.566406 -1.417969 Z M 8.566406 -1.417969 "/></g></g></g><g fill="#ffffff" fill-opacity="1"><g transform="translate(151.220785, 35.468561)"><g><path d="M 1.917969 0 L 3.667969 0 L 3.667969 -11.671875 L 12.441406 0 L 14.066406 0 L 14.066406 -14.585938 L 12.316406 -14.585938 L 12.316406 -2.9375 L 3.542969 -14.585938 L 1.917969 -14.585938 Z M 1.917969 0 "/></g></g></g><g fill="#ffffff" fill-opacity="1"><g transform="translate(167.201797, 35.468561)"><g><path d="M 1.917969 0 L 11.878906 0 L 11.878906 -1.667969 L 3.667969 -1.667969 L 3.667969 -6.523438 L 11.128906 -6.523438 L 11.128906 -8.191406 L 3.667969 -8.191406 L 3.667969 -12.921875 L 11.753906 -12.921875 L 11.753906 -14.585938 L 1.917969 -14.585938 Z M 1.917969 0 "/></g></g></g><g fill="#ffffff" fill-opacity="1"><g transform="translate(180.119949, 35.468561)"><g><path d="M 5.960938 0 L 7.710938 0 L 7.710938 -5.523438 L 13.441406 -14.585938 L 11.503906 -14.585938 L 6.835938 -7.085938 L 2.167969 -14.585938 L 0.230469 -14.585938 L 5.960938 -5.523438 Z M 5.960938 0 "/></g></g></g></svg>